# Blender 4.5.1 LTS
# www.blender.org
mtllib testSaber.mtl
o Cylinder
v -1.855479 -16.547888 -1.000000
v -8.149938 10.639638 -1.085118
v -1.855479 -16.547888 1.000000
v -8.149938 10.639638 1.085118
v -2.197499 -16.547888 0.939693
v -8.521070 10.639638 1.019677
v -2.498267 -16.547888 0.766044
v -8.847438 10.639638 0.831248
v -2.721505 -16.547888 0.500000
v -9.089678 10.639638 0.542559
v -2.840287 -16.547888 0.173648
v -9.218571 10.639638 0.188429
v -2.840287 -16.547888 -0.173648
v -9.218571 10.639638 -0.188429
v -2.721505 -16.547888 -0.500000
v -9.089678 10.639638 -0.542559
v -2.498267 -16.547888 -0.766044
v -8.847438 10.639638 -0.831248
v -2.197499 -16.547888 -0.939693
v -8.521070 10.639638 -1.019677
v 1.373524 -16.547888 -1.000000
v 8.068613 10.639638 -1.085118
v 1.715544 -16.547888 -0.939693
v 8.439745 10.639638 -1.019677
v 2.016312 -16.547888 -0.766044
v 8.766113 10.639638 -0.831248
v 2.239550 -16.547888 -0.500000
v 9.008353 10.639638 -0.542559
v 2.358332 -16.547888 -0.173648
v 9.137245 10.639638 -0.188429
v 2.358332 -16.547888 0.173648
v 9.137245 10.639638 0.188429
v 2.239550 -16.547888 0.500000
v 9.008353 10.639638 0.542559
v 2.016312 -16.547888 0.766044
v 8.766113 10.639638 0.831248
v 1.715544 -16.547888 0.939693
v 8.439745 10.639638 1.019677
v 1.373524 -16.547888 1.000000
v 8.068613 10.639638 1.085118
v -1.258162 -16.547888 -1.000000
v -0.660845 -16.547888 -1.000000
v -0.165627 -16.547888 -1.000000
v 0.202241 -16.547888 -1.000000
v 0.587019 -16.547888 -1.000000
v 0.980271 -16.547888 -1.000000
v -5.840190 10.639638 -1.085118
v -3.530442 10.639638 -1.085118
v -1.220695 10.639638 -1.085118
v 1.207393 10.639638 -1.085118
v 3.494467 10.639638 -1.085118
v 5.781539 10.639638 -1.085118
v -5.840190 10.639638 1.085118
v -3.530442 10.639638 1.085118
v -1.220695 10.639638 1.085118
v 1.207393 10.639638 1.085118
v 3.494467 10.639638 1.085118
v 5.781539 10.639638 1.085118
v -1.258162 -16.547888 1.000000
v -0.660845 -16.547888 1.000000
v -0.165627 -16.547888 1.000000
v 0.202241 -16.547888 1.000000
v 0.587019 -16.547888 1.000000
v 0.980271 -16.547888 1.000000
vn -0.0746 -0.0204 -0.9970
vn -0.0996 -0.0262 -0.9947
vn -0.0746 -0.0204 0.9970
vn -0.0996 -0.0262 0.9947
vn -0.3185 -0.0769 0.9448
vn -0.3624 -0.0870 0.9279
vn -0.6208 -0.1468 0.7701
vn -0.6492 -0.1534 0.7449
vn -0.8425 -0.1981 0.5010
vn -0.8542 -0.2008 0.4795
vn -0.9588 -0.2250 0.1735
vn -0.9602 -0.2253 0.1652
vn -0.9588 -0.2250 -0.1735
vn -0.9602 -0.2253 -0.1652
vn -0.8425 -0.1981 -0.5010
vn -0.8542 -0.2008 -0.4795
vn -0.6208 -0.1468 -0.7701
vn -0.6492 -0.1534 -0.7449
vn -0.3185 -0.0769 -0.9448
vn -0.3624 -0.0870 -0.9279
vn 0.0738 -0.0213 -0.9970
vn 0.1004 -0.0278 -0.9946
vn 0.3170 -0.0812 -0.9449
vn 0.3635 -0.0926 -0.9270
vn 0.6190 -0.1555 -0.7698
vn 0.6491 -0.1629 -0.7431
vn 0.8400 -0.2099 -0.5004
vn 0.8523 -0.2130 -0.4777
vn 0.9556 -0.2384 -0.1732
vn 0.9571 -0.2387 -0.1644
vn 0.9556 -0.2384 0.1732
vn 0.9571 -0.2387 0.1644
vn 0.8400 -0.2099 0.5004
vn 0.8523 -0.2130 0.4777
vn 0.6190 -0.1555 0.7698
vn 0.6491 -0.1629 0.7431
vn 0.3170 -0.0812 0.9449
vn 0.3635 -0.0926 0.9270
vn 0.0738 -0.0213 0.9970
vn 0.1004 -0.0278 0.9946
vn -0.0000 -0.0031 -1.0000
vn -0.0000 -0.0031 1.0000
vt 0.500000 0.000000
vt 0.500000 1.000000
vt 0.444444 1.000000
vt 0.444444 0.000000
vt 0.388889 1.000000
vt 0.388889 0.000000
vt 0.333333 1.000000
vt 0.333333 0.000000
vt 0.277778 1.000000
vt 0.277778 0.000000
vt 0.222222 1.000000
vt 0.222222 0.000000
vt 0.166666 1.000000
vt 0.166666 0.000000
vt 0.111111 1.000000
vt 0.111111 0.000000
vt 0.055555 1.000000
vt 0.055555 0.000000
vt -0.000000 1.000000
vt -0.000000 0.000000
vt 1.000000 0.000000
vt 1.000000 1.000000
vt 0.944444 1.000000
vt 0.944444 0.000000
vt 0.888889 1.000000
vt 0.888889 0.000000
vt 0.833333 1.000000
vt 0.833333 0.000000
vt 0.777778 1.000000
vt 0.777778 0.000000
vt 0.722222 1.000000
vt 0.722222 0.000000
vt 0.666667 1.000000
vt 0.666667 0.000000
vt 0.611111 1.000000
vt 0.611111 0.000000
vt 0.555555 1.000000
vt 0.555555 0.000000
vt 0.500000 0.000000
vt 0.500000 1.000000
vt 0.857143 1.000000
vt 0.857143 0.000000
vt 0.142857 1.000000
vt 0.142857 0.000000
vt 0.285714 1.000000
vt 0.285714 0.000000
vt 0.428571 1.000000
vt 0.428571 0.000000
vt 0.571429 1.000000
vt 0.571429 0.000000
vt 0.714286 1.000000
vt 0.714286 0.000000
s 1
f 3/1/3 4/2/4 6/3/6 5/4/5
f 5/4/5 6/3/6 8/5/8 7/6/7
f 7/6/7 8/5/8 10/7/10 9/8/9
f 9/8/9 10/7/10 12/9/12 11/10/11
f 11/10/11 12/9/12 14/11/14 13/12/13
f 13/12/13 14/11/14 16/13/16 15/14/15
f 15/14/15 16/13/16 18/15/18 17/16/17
f 17/16/17 18/15/18 20/17/20 19/18/19
f 19/18/19 20/17/20 2/19/2 1/20/1
f 21/21/21 22/22/22 24/23/24 23/24/23
f 23/24/23 24/23/24 26/25/26 25/26/25
f 25/26/25 26/25/26 28/27/28 27/28/27
f 27/28/27 28/27/28 30/29/30 29/30/29
f 29/30/29 30/29/30 32/31/32 31/32/31
f 31/32/31 32/31/32 34/33/34 33/34/33
f 33/34/33 34/33/34 36/35/36 35/36/35
f 35/36/35 36/35/36 38/37/38 37/38/37
f 37/38/37 38/37/38 40/2/40 39/1/39
f 64/39/42 39/1/39 40/2/40 58/40/42
f 52/41/41 22/22/22 21/21/21 46/42/41
f 2/19/2 47/43/41 41/44/41 1/20/1
f 47/43/41 48/45/41 42/46/41 41/44/41
f 48/45/41 49/47/41 43/48/41 42/46/41
f 49/47/41 50/49/41 44/50/41 43/48/41
f 50/49/41 51/51/41 45/52/41 44/50/41
f 51/51/41 52/41/41 46/42/41 45/52/41
f 3/1/3 59/1/42 53/2/42 4/2/4
f 59/1/42 60/39/42 54/40/42 53/2/42
f 60/39/42 61/1/42 55/2/42 54/40/42
f 61/1/42 62/1/42 56/2/42 55/2/42
f 62/1/42 63/39/42 57/40/42 56/2/42
f 63/39/42 64/39/42 58/40/42 57/40/42
